<?xml version="1.0" encoding="UTF-8"?>
<svg id="layer" xmlns="http://www.w3.org/2000/svg" version="1.1" viewBox="0 0 600 128.9">
  <defs>
    <style>
      .cls-1 {
        fill: #dc1928;
        stroke-width: 0px;
      }
    </style>
  </defs>
  <path class="cls-1" d="M0,64.5c0,27.6,17.1,51.1,41.2,60.3V4.2C17.1,13.4,0,36.9,0,64.5h0ZM63.8,0c-1.8,0-3.5.1-5.2.2v4.5h.3c24.3.2,43.8,18.9,43.7,41.8-.2,22.8-19.8,41.2-44,41.2v41c1.7.2,3.5.2,5.2.2,35.2,0,63.8-28.9,63.8-64.5C127.5,28.9,98.9,0,63.8,0h0ZM186.1,79.5h-20.5l-3.6,10.7h-9.1l17.6-51.6h10.9l17.4,51.6h-9.1l-3.6-10.7ZM183.5,71.7l-7.7-22.9-7.7,22.9h15.4ZM225.8,52.6h8.7v37.6h-8.7v-4.4h-.3c-2.4,3.3-5.6,5.3-10.6,5.3-7.5,0-12.4-5.5-12.4-13.9v-24.6h8.7v23.7c0,4.2,2,7.3,6.8,7.3s7.7-3.5,7.7-7.9v-23.1h.1ZM249.3,79.4c.6,3.3,2.8,5.4,7.5,5.4s6.8-1.8,6.8-4.9-.9-4.1-5-4.6l-6.7-.8c-7.6-.9-10.8-4.5-10.8-10.4s6-12.3,15.4-12.3,14.5,5.7,14.9,11.4h-8.6c-.4-3-2.6-4.9-6.5-4.9s-6.6,1.9-6.6,4.8,1.3,3.8,5.6,4.3l6.6.8c7.3.9,10.2,4.3,10.2,10.5s-6.7,12.6-15.4,12.6-15.5-5-16.2-11.8h8.8ZM281.7,59.2h-7.1v-6.6h7.2v-14h8.7v14h8.5v6.5h-8.5v19.3c0,3.4,1.7,4.8,5,4.8h3.6v7h-5.1c-8.3,0-12.3-3.8-12.3-11.2v-19.8h0ZM315.3,90.2h-8.8v-37.6h8.8v5.7h.3c1.8-4.1,4.8-5.7,8-5.7h4.2v7.8h-3.9c-5.8,0-8.6,2.8-8.6,9.7v20.1ZM341.8,91.2c-7.1,0-11.9-4.2-11.9-11.3s5.6-10.2,11.7-11l7.9-1c3-.3,3.7-1.7,3.7-3.8,0-3.2-2.1-5.6-6.5-5.6s-6.8,2.5-7.2,6h-8.9c.2-6.4,5.5-12.6,15.9-12.6s15.5,5.8,15.5,14.4v17.7c0,2.3.3,4.7.8,6.5h-9.1c-.2-1.6-.4-3.2-.4-4.9h-.2c-1.8,3-5.9,5.6-11.3,5.6h0ZM348.6,73l-3.9.9c-3.7.8-6,2.3-6,5.7s2,5.2,5.9,5.2,8.7-3,8.7-7.9v-5.9c-1,1-2.8,1.5-4.7,2h0ZM369.8,80.1v-44h8.7v43.4c0,2.3,1,3.8,3.6,3.8h2.9v6.9h-4.6c-6.8,0-10.6-3.9-10.6-10.1h0ZM400.6,40.9c0,3.1-2.4,5.4-5.4,5.4s-5.4-2.4-5.4-5.4,2.4-5.4,5.4-5.4,5.4,2.3,5.4,5.4h0ZM399.6,52.6v37.6h-8.8v-37.6h8.8ZM417.7,91.2c-7.1,0-11.9-4.2-11.9-11.3s5.6-10.2,11.7-11l7.9-1c3-.3,3.7-1.7,3.7-3.8,0-3.2-2.1-5.6-6.5-5.6s-6.8,2.5-7.2,6h-8.9c.2-6.4,5.5-12.6,15.9-12.6s15.5,5.8,15.5,14.4v17.7c0,2.3.3,4.7.8,6.5h-9.1c-.2-1.6-.4-3.2-.3-4.9h-.2c-2,3-6.1,5.6-11.4,5.6h0ZM424.4,73l-3.9.9c-3.7.8-6,2.3-6,5.7s2,5.2,5.9,5.2,8.7-3,8.7-7.9v-5.9c-1,1-2.7,1.5-4.7,2h0ZM481.9,38.7c11,0,17.9,6.3,17.9,16.7s-7,16.8-17.9,16.8h-12.9v18h-9.3v-51.6h22.2ZM490.4,55.4c0-6.4-3.9-9.1-10.3-9.1h-11.1v18.3h11.1c6.5,0,10.3-2.5,10.3-9.2h0ZM519.6,51.8c10.8,0,17.9,7.8,17.9,19.7s-7.2,19.7-17.9,19.7-18-7.7-18-19.7,7.2-19.7,18-19.7h0ZM528.6,70c0-7-3.5-11.2-9.1-11.2s-9.1,4.1-9.1,11.2v3.1c0,7,3.4,11.1,9.1,11.1s9.1-4.1,9.1-11.1v-3.1ZM550.2,79.4c.6,3.3,2.8,5.4,7.5,5.4s6.7-1.8,6.7-4.9-.9-4.1-5-4.6l-6.7-.8c-7.6-.9-10.8-4.5-10.8-10.4s6-12.3,15.4-12.3,14.5,5.7,15,11.4h-8.6c-.4-3-2.6-4.9-6.5-4.9s-6.6,1.9-6.6,4.8,1.3,3.8,5.6,4.3l6.6.8c7.3.9,10.2,4.3,10.2,10.5s-6.7,12.6-15.4,12.6-15.5-5-16.2-11.8h8.8ZM582.6,59.2h-7.1v-6.6h7.2v-14h8.7v14h8.6v6.5h-8.6v19.3c0,3.4,1.7,4.8,5,4.8h3.6v7h-5.1c-8.3,0-12.3-3.8-12.3-11.2v-19.8Z"/>
</svg>